<?xml version="1.0" encoding="UTF-8"?>
<svg width="1000px" height="1000px" viewBox="0 0 1000 1000" version="1.1" xmlns="http://www.w3.org/2000/svg" xmlns:xlink="http://www.w3.org/1999/xlink">
    <!-- Generator: Sketch 50.2 (55047) - http://www.bohemiancoding.com/sketch -->
    <title>Assets/App Icon/iTunesArtwork Copy 9@5x</title>
    <desc>Created with Sketch.</desc>
    <defs></defs>
    <g id="Assets/App-Icon/iTunesArtwork-Copy-9" stroke="none" stroke-width="1" fill="none" fill-rule="evenodd">
        <rect id="Rectangle-6" fill="#000000" x="0" y="0" width="1000" height="1000"></rect>
        <g id="Group-2" transform="translate(265.000000, 253.000000)">
            <g id="Group-Copy" transform="translate(0.000000, 398.000000)" fill="#FFFFFF">
                <path d="M0,70.4218196 L5.19816044,57.4694293 C9.5299608,60.0816761 15.7027763,62.0408612 22.4170669,62.0408612 C28.4815874,62.1497048 34.0046329,59.3197708 34.0046329,53.6599027 C34.0046329,49.4150017 30.8640776,46.6939113 24.149787,43.2109156 C16.4608414,39.0748582 8.98848576,33.3061465 8.98848576,23.7279083 C8.98848576,8.92517652 21.8755918,0 37.7949582,0 C46.6751489,0 51.8733094,1.95918509 55.1221597,3.59183933 L50.1405892,16.6530733 C47.758099,15.3469499 42.5599386,13.3877648 36.4954181,13.3877648 C29.2396525,13.3877648 25.4493271,17.0884477 25.4493271,21.1156615 C25.4493271,25.3605625 29.8894225,27.9728093 36.062238,31.455805 C44.9424288,36.1360805 50.5737693,42.0136358 50.5737693,50.8299687 C50.5737693,67.2653547 37.1451881,75.6463132 20.9009368,75.6463132 C10.7212059,75.4286259 3.46544029,72.8163792 0,70.4218196 Z" id="Path"></path>
                <path d="M107.147947,51.3912246 C106.302544,55.4803337 105.232598,59.0914407 103.938076,62.2246541 C102.643554,65.3578675 100.939565,67.9732649 98.8260594,70.0709247 C96.7125537,72.1685845 94.1235479,73.7617199 91.0589646,74.8503788 C87.9943812,75.9390377 84.2693832,76.483359 79.8838588,76.483359 C77.1363013,76.483359 74.4284127,76.1912842 71.7601116,75.6071257 C69.0918106,75.0229673 66.7141523,74.0803622 64.6270654,72.779282 C62.5399784,71.4782019 60.8491992,69.7523052 59.5546769,67.60154 C58.2601547,65.4507749 57.6129032,62.8088253 57.6129032,59.6756119 C57.6129032,58.2417684 57.7449954,56.8212227 58.0091836,55.4139319 C58.2733718,54.0066411 58.537556,52.6126476 58.8017443,51.2319095 L65.6970223,18.3333333 L79.3297346,18.3333333 L72.4344565,51.2319095 C72.3287812,51.7098573 72.2098983,52.2541786 72.0778042,52.8648897 C71.9457101,53.4756008 71.813618,54.1261311 71.6815239,54.8165001 C71.5494298,55.5068692 71.4437561,56.1573995 71.3644996,56.7681106 C71.2852431,57.3788217 71.2456155,57.9231429 71.2456155,58.4010908 C71.2456155,59.0914598 71.3909168,59.8880275 71.6815239,60.7908178 C71.9721309,61.6936081 72.5137086,62.5300043 73.3062733,63.3000313 C74.098838,64.0700583 75.1819934,64.7205886 76.5557722,65.2516417 C77.9295509,65.7826948 78.5100761,66.0482174 80.6764195,66.0482174 C83.2126264,66.0482174 84.0837542,65.7163142 85.6688836,65.0524978 C87.2540129,64.3886814 88.5353065,63.4593524 89.5128029,62.2644829 C90.4902993,61.0696134 91.2564337,59.5959631 91.811229,57.8434878 C92.3660242,56.0910125 92.8811835,54.1526977 93.3567223,52.0284852 L100.410512,18.3333333 L114.043225,18.3333333 L107.147947,51.3912246 Z" id="U"></path>
                <path d="M126.92167,95.7823678 L111.435484,95.7823678 L121.615215,41.578247 C122.80646,35.2653173 124.106,26.0136099 124.647475,20.5714291 L138.617531,20.5714291 L137.751171,28.7347003 L137.967761,28.7347003 C142.299561,22.9659887 148.472377,19.8095238 154.970078,19.8095238 C166.341054,19.8095238 171.972394,29.0612312 171.972394,39.9455928 C171.972394,58.4490075 159.735058,75.4286116 141.324906,75.4286116 C137.101401,75.4286116 133.311076,74.3401755 131.470061,73.2517393 L131.253471,73.2517393 L126.92167,95.7823678 Z M135.693566,49.523831 L133.744256,60.9524107 C135.368681,62.4762213 137.751171,63.5646575 140.783431,63.5646575 C149.122147,63.5646575 155.728143,51.7007033 155.728143,41.2517162 C155.728143,37.0068151 153.778832,32.5442269 148.797262,32.5442269 C142.949332,32.5442269 137.317991,38.9660002 135.693566,49.523831 Z" id="Combined-Shape"></path>
                <path d="M219.83874,59.7551309 L220.813395,71.1837106 C214.640579,74.3401755 206.951634,75.4286116 200.995408,75.4286116 C185.834107,75.4286116 178.145161,66.7211223 178.145161,52.7891395 C178.145161,36.6802843 189.841022,19.8095238 208.900944,19.8095238 C219.730445,19.8095238 227.41939,25.7959227 227.41939,35.8095354 C227.41939,49.3061438 214.315694,54.3129501 193.089873,53.6598884 C193.089873,55.183699 193.631348,57.5782586 194.714298,59.1020692 C196.880198,61.8231596 200.345638,63.129283 204.894029,63.129283 C210.633664,63.129283 215.615234,61.9320032 219.83874,59.7551309 Z M212.799564,35.7006918 C212.799564,33.088445 210.525369,31.2381035 207.059929,31.2381035 C199.912458,31.2381035 195.688953,37.2245024 194.606003,42.1224651 C206.735044,42.3401523 212.799564,40.7074981 212.799564,35.7006918 Z" id="Combined-Shape"></path>
                <path d="M245.179735,74.2313318 L229.693548,74.2313318 L235.541479,42.5578396 C237.165904,34.503412 237.815674,25.5782355 238.357149,21.0068036 L251.894025,21.0068036 C251.56914,24.5986429 251.35255,28.1904822 250.91937,31.8911652 L251.244255,31.8911652 C255.034581,24.8163301 260.882511,19.8095238 268.138277,19.8095238 C269.112932,19.8095238 270.087587,19.8095238 270.953947,19.9183674 L267.921687,35.2653173 C267.271917,35.1564737 266.405556,35.0476301 265.430901,35.0476301 C255.576056,35.0476301 250.91937,43.9728066 248.97006,54.4217937 L245.179735,74.2313318 Z" id="Path"></path>
                <path d="M355.748858,74.8844068 L341.129032,74.8844068 L354.990793,1.52380952 L373.400945,1.52380952 L382.930906,29.4966189 C385.963166,38.8571698 387.912476,46.476223 389.645196,54.5306506 L389.970081,54.5306506 C390.186671,47.020441 391.269621,38.9660135 393.327227,28.1904955 L398.308797,1.52380952 L412.928623,1.52380952 L399.066862,74.8844068 L382.930906,74.8844068 L372.751175,45.7143177 C369.502325,35.700705 367.553014,29.0612444 365.603704,20.1360679 L365.170524,20.1360679 C364.412459,27.3197465 362.679739,37.6598901 360.513839,49.1973134 L355.748858,74.8844068 Z" id="Path"></path>
                <polygon id="Path" points="462.419391 30.585055 459.928606 43.8639762 433.937804 43.8639762 430.688953 61.496642 459.820311 61.496642 457.221231 74.8844068 412.387097 74.8844068 426.248858 1.52380952 469.566862 1.52380952 466.967781 14.9115743 439.460849 14.9115743 436.428589 30.585055"></polygon>
                <path d="M314.228055,2.69409443 C317.310692,1.40559687 320.870261,2.41545498 322.827578,5.13379885 C335.224394,22.3506383 339.628094,38.7924627 335.40706,54.1393789 C332.3471,65.2648451 325.382747,72.1217604 316.092082,74.912696 C310.157016,76.695603 304.513029,76.6395469 298.968559,75.6988078 C293.981802,74.8526967 288.129452,72.2312362 283.596484,67.8311777 C276.956847,61.3862192 274.109248,52.1562625 276.266029,40.738796 C279.3396,24.4680711 292.318424,11.8520038 314.228055,2.69409443 Z M290.416477,43.4389932 C289.158347,50.0992206 290.48198,54.3895276 293.602331,57.4183878 C295.846424,59.5966827 299.049771,61.0315675 301.366135,61.4245887 C304.928204,62.0289706 308.564316,62.0650844 311.967426,61.0427827 C316.611035,59.6478324 319.816676,56.4916445 321.524496,50.282319 C324.098723,40.9228947 321.875189,30.3900239 314.41994,18.4639221 C299.997631,25.4692163 292.229512,33.8412322 290.416477,43.4389932 Z" id="Path-8" fill-rule="nonzero"></path>
            </g>
            <g id="Group" transform="translate(104.000000, 0.000000)" stroke="#FFFFFF" stroke-width="5">
                <polygon id="Combined-Shape" points="131 340 77.5083333 330.116279 36.025 303.430233 6.55 265.872093 0 202.616279 10.9166667 139.360465 41.4833333 85.9883721 86.2381387 37.5581395 131 0 175.761861 37.5581395 220.516667 85.9883721 251.083333 139.360465 262 202.616279 255.45 265.872093 225.975 303.430233 184.491667 330.116279"></polygon>
                <path d="M223.771611,156.20664 L223.791667,156.162791 L262,202.616279 L227.066667,252.034884 L199.240077,209.841277 L223.61056,156.558754 L161.566667,128.964882 L161.566667,64.244186 L220.516667,85.9883721 L223.771611,156.20664 Z M78.0155904,264.711759 L62.3875076,210.405972 L34.9333333,252.034884 L0,202.616279 L38.2083333,156.162791 L38.2283892,156.20664 L41.4833333,85.9883721 L100.433333,64.244186 L100.433333,128.073548 L130.465077,104.784389 L161.009906,128.488372 L198.683317,209.841277 L182.843239,264.883721 L130.465077,280.697674 L78.6555108,265.06191 L90.6083333,303.430233 L36.025,303.430233 L34.9333333,252.034884 L78.0155904,264.711759 Z M62.4941187,209.260135 L99.4817632,129.388091 L38.3894401,156.558754 L62.4941187,209.260135 Z M131,104.767442 L100.433333,63.7676757 L131,0 L161.566667,63.7676757 L131,104.767442 Z M131,280.697674 L171.391667,303.430233 L131,340 L90.6083333,303.430233 L131,280.697674 Z M183.4,264.883721 L227.066667,252.034884 L225.975,303.430233 L171.391667,303.430233 L183.4,264.883721 Z" id="Combined-Shape" stroke-linecap="round" stroke-linejoin="round"></path>
            </g>
        </g>
    </g>
</svg>